<?xml version="1.0" encoding="UTF-8"?>
<svg width="152px" height="76px" viewBox="0 0 152 76" version="1.1" xmlns="http://www.w3.org/2000/svg" xmlns:xlink="http://www.w3.org/1999/xlink">
    <title>Fill 1</title>
    <g id="Page-1" stroke="none" stroke-width="1" fill="none" fill-rule="evenodd">
        <g id="pink-logo" transform="translate(-4.000000, -3.000000)" fill="#E7235F">
            <path d="M135.603649,48.104729 C134.345202,47.6894929 132.923536,48.5293112 131.953681,50.2636895 C130.220952,53.3639407 129.770324,56.7699445 130.100311,60.3481845 C130.189018,61.3108379 130.219769,62.4070077 131.182528,62.8342602 C132.207972,63.288216 133.171914,62.7474745 133.827158,61.9650683 C136.074384,59.2813883 137.578842,56.1357415 137.99517,52.7844794 C138.074414,50.2396565 137.174341,48.6227727 135.603649,48.104729 M100.898484,47.7920684 C101.093868,46.5758248 101.105855,45.2553709 100.015056,44.4395142 C98.8235682,43.5482421 97.7267758,44.1748749 96.6947122,44.8851502 C95.7933047,45.5049271 95.1687924,46.4592739 94.6329824,47.4808088 C93.5194085,49.6034075 92.9644196,51.9001472 93.0195589,54.4560413 C92.947638,55.6928527 93.0651087,56.9790269 93.5218058,58.1938993 C93.8214759,58.994673 94.3153321,59.2894784 94.9722088,58.658732 C97.9749026,55.7710104 100.176878,52.2881933 100.898484,47.7920684 M77.7776766,48.4225413 C78.0590272,46.9779 78.3105738,45.3809745 76.9538914,44.4302276 C75.5137575,43.4204878 74.3013269,44.3753505 73.1842695,45.3727429 C72.7872789,45.7280726 72.4570496,46.2000162 72.1506635,46.6651001 C70.6389998,48.9713129 70.0953731,51.6369712 70,54.9584115 C70.0047687,55.6539795 70.1609421,56.8132596 70.4887872,57.9423573 C70.81544,59.0659672 71.3554902,59.3472127 72.1768911,58.5295429 C74.9140991,55.800776 76.972966,52.5575356 77.7776766,48.4225413 M56.7871891,48.3596252 C57.0643217,46.9718104 57.2781439,45.4290321 56.0322415,44.4814234 C54.6967487,43.4666182 53.4663752,44.2277221 52.35665,45.183559 C51.9517018,45.5305127 51.6028969,45.9803183 51.2803718,46.4328665 C49.5972687,48.7861177 49.0907848,51.583689 49,54.6185053 C49.0298634,55.6566237 49.1170647,56.7619386 49.4264498,57.8466832 C49.7740602,59.0644495 50.2912949,59.3826047 51.1860034,58.488479 C53.9286612,55.7485047 55.9665419,52.4833002 56.7871891,48.3596252 M155.548918,61.1912361 C153.031149,64.584802 150.035804,67.2547876 144.495138,67.3468561 C143.461265,67.4596724 141.728084,66.8657659 140.23238,65.6390508 C139.289037,64.8661944 138.656642,64.8272922 137.739539,65.8335617 C134.870148,68.9846374 130.886851,70.3721481 126.773664,67.213292 C125.857873,66.5091627 125.03786,67.0524963 124.217846,67.3209213 C120.918112,68.3998081 117.597386,68.7226961 114.232051,67.6762278 C113.022367,67.2988767 111.891405,66.7166409 111.291811,65.558653 C110.777498,64.565351 110.299923,64.6262977 109.49959,65.2461389 C105.041341,68.7019483 100.105516,68.9587026 94.9059749,67.2690517 C94.6383225,67.1821702 94.3221254,67.148455 94.116138,66.9824724 C91.8647092,65.1657411 89.6972497,65.6675791 87.1584882,66.6505072 C82.2725204,68.5424494 77.174005,68.9807472 72.0702415,67.2236659 C71.8039012,67.1315974 71.486392,67.0913985 71.2856527,66.9202289 C69.0748966,65.0334737 66.9454857,65.74279 64.4946297,66.6647714 C59.5942296,68.5074375 54.5035863,68.9924178 49.3985108,67.2249626 C49.1321705,67.1328941 48.8172853,67.088805 48.615234,66.9189322 C46.4044779,65.0555183 44.2173381,65.5314215 41.825523,66.6790355 C40.3849235,67.3714941 38.6845437,67.5504441 37.0917496,67.9200147 C35.6760785,68.2480897 34.606781,67.7527354 34.1252691,66.383379 C33.6791818,65.1177618 34.4480264,64.0246108 36.0565647,63.5837196 C37.5247167,63.1817305 39.0138611,62.856249 40.4990693,62.5178001 C41.5539346,62.2766067 41.824211,61.9238937 41.2823461,60.7905438 C36.6823989,51.1817079 42.6665288,39.6083125 52.4266564,38.0016529 C58.0027475,37.0835617 62.1447993,40.6314396 61.5333973,46.2048237 C60.9010029,51.971422 57.5815886,56.3167943 53.4644653,60.1512515 C51.673556,61.8188578 51.6604358,61.9783567 53.932857,62.9275696 C57.3349286,64.3474988 60.5926779,63.298437 63.8373069,62.2908708 C64.7019291,62.0224458 64.2925784,61.4817057 64.0393582,60.9707905 C60.2699206,53.3485588 63.0750225,43.9147827 70.4630153,39.6264669 C73.0621298,38.1170627 75.9157764,37.4440552 78.9347378,38.1520747 C82.1190138,38.8989963 84.0030766,41.2357199 84.2261203,44.494425 C84.5016448,48.5207995 82.7842087,51.8858372 80.6324935,55.0887825 C79.2194464,57.1920931 77.5492431,59.1047831 75.5169219,60.6479025 C74.3846474,61.5076404 74.6706681,61.9991045 75.7465256,62.5307675 C77.4534656,63.3749446 79.2233825,63.8508478 81.1428699,63.5344435 C82.2003592,63.3593837 83.2644086,63.1972913 84.3035296,62.940537 C87.1322478,62.2428914 87.0089178,62.2662327 86.0931268,59.6805352 C82.4758837,49.4609353 88.9034768,39.5836745 97.5090255,38.0625997 C103.53514,36.997977 107.860875,40.9141287 106.834874,46.9232171 C105.919083,52.2800459 102.829272,56.4490617 98.9010802,60.06437 C97.0117693,61.8032969 97.0340737,62.0795023 99.4600014,63.0079674 C102.845017,64.3034097 107.888427,62.8847772 109.801354,59.94507 C110.698777,58.5666364 110.650232,56.8328964 110.915261,55.2508749 C112.543479,45.5318162 115.147842,36.0682151 118.451512,26.788751 C119.199364,24.6867371 120.121715,22.6339993 121.631852,20.9093364 C122.433497,19.9951354 123.397833,19.3350953 124.599644,19.0887149 C126.819585,18.6322628 128.160471,19.9795746 127.618606,22.1555026 C127.364074,23.1825199 126.954723,24.1719317 126.620157,25.1807946 C123.222022,35.4159554 119.753037,45.6329618 117.754829,56.2571443 C117.455688,57.8456496 117.114562,59.443232 117.22346,61.0732329 C117.299557,62.2117697 117.764013,63.1311576 119.011745,63.4332978 C120.39068,63.7665597 121.732878,63.5409272 122.947809,62.9171957 C123.543467,62.6111653 122.99373,62.0042915 122.84416,61.5698839 C120.674076,55.2547651 122.287863,49.7967907 126.75792,45.0520228 C130.389595,41.1994113 135.966998,40.8946776 140.035577,44.2830566 C140.749316,44.876963 141.220332,45.1064858 142.052154,44.5125794 C142.920712,43.8914414 143.992633,43.962762 145.005514,44.1845044 C146.966986,44.613725 147.448498,45.4293738 146.733446,47.316129 C145.703509,50.0340939 144.520066,52.6924088 143.940153,55.563389 C143.773526,56.3933019 143.684308,57.2128409 143.635764,58.0492376 C143.532114,59.8102091 144.081851,61.3481415 145.694325,62.1534165 C147.254319,62.9340533 148.878601,62.6111653 150.355938,61.673623 C151.412115,61.0045057 152.279361,60.1266134 153.178096,59.2746559 C153.834106,58.6535179 154.631815,58.260606 155.447893,58.9180527 C156.267906,59.5780928 156.064543,60.496184 155.548918,61.1912361 M92.5815279,14.9976847 C94.2671013,14.9395421 94.887623,13.8454051 94.9649985,12.5319122 C95.0347882,11.33999 94.978653,10.1414607 94.978653,8.94557428 L94.9725844,8.94557428 C94.9725844,7.69286672 95.0378226,6.43751632 94.9543783,5.18877302 C94.8678998,3.91227987 94.1866914,3.02560606 92.5360129,3.00049905 C90.8580253,2.97539204 90.1343363,3.90038708 90.0812354,5.1504518 C89.9765508,7.65190265 89.9719993,10.161282 90.0736496,12.6627329 C90.1267504,13.9630116 90.8595425,15.0571486 92.5815279,14.9976847 M42.4343158,31.9010343 C42.7331288,30.7011002 43.1964865,29.9313065 44.6142031,30.277517 C45.048601,30.3824292 45.5211732,30.3168591 45.9687346,30.3863634 C53.4917155,31.5508896 61.0568199,32.1279071 68.4192052,32.0190606 C82.0579813,32.3115035 92.2189418,30.2434205 102.520753,26.5032981 C108.009962,24.5112764 112.996323,21.6406145 117.070448,17.373308 C118.252537,16.1366546 119.279295,14.7780408 119.782143,13.1178041 C120.473231,10.8398965 119.478065,8.80722132 117.392955,8.24462928 C115.881777,7.83678284 114.345589,7.99546264 112.842309,8.30888804 C112.105149,8.46232224 111.398265,8.838695 111.518054,9.78946243 C112.064342,14.1393873 109.619867,16.8684177 106.268421,18.8761762 C99.8169551,22.7395705 92.5993691,24.2135879 85.2330346,25.059443 C78.9487458,25.7807149 72.6473443,25.5263026 66.3749026,25.0082983 C61.0712998,24.5702896 55.771646,24.0313028 50.5167484,23.098895 C40.8849634,21.3914479 31.2097386,20.2754436 21.4515833,22.0917372 C16.1058571,23.085781 10.9983915,24.7394606 6.70443458,28.2225479 C4.89444354,29.6913197 3.28322243,31.5167931 4.33235905,34.0478016 C5.3499031,36.5014373 7.74698941,36.7466697 10.0808906,36.8240425 C10.3612746,36.8332223 10.6469241,36.796503 10.9259918,36.7492925 C11.4880763,36.6522486 11.8908816,36.3230864 11.9316887,35.7526259 C12.1791638,32.2367536 14.7539583,30.941087 17.5709626,29.9706486 C22.6191921,28.2317277 27.8517116,28.5110566 33.0697512,28.7221926 C34.6217363,28.7851399 34.8442006,29.4736267 34.4861515,30.9227274 C32.6564151,38.3216651 30.7108393,45.6904405 28.4769813,52.9752861 C27.2224929,57.0694874 25.969321,61.1912281 23.8328734,64.9628241 C20.3827014,71.0529813 15.8899745,73.0489372 9.06203017,71.4188628 C8.14716197,71.1998585 7.39815478,71.26674 6.68074015,71.8476917 C5.25907446,72.9964811 4.05592406,74.3459151 4.40870777,76.2933491 C4.76017512,78.2329146 6.66099479,78.2565199 8.10372219,78.7902611 C8.15637647,78.8099321 8.21561254,78.8125549 8.2722159,78.8178005 C18.5424341,79.8170899 26.6775211,76.8205332 31.6967908,66.9784511 C34.698085,61.0928729 36.4225128,54.7705973 38.1916968,48.471927 C39.7318346,42.983704 41.0547735,37.433845 42.4343158,31.9010343 M82.066092,13.992051 C81.9785594,11.3376862 81.9816856,8.67805472 82.0535874,6.02368987 C82.0879752,4.76892315 83.0727174,4.00131665 84.5185691,4 C85.9628577,4 86.910086,4.73995687 86.9679201,6.02237322 C87.0288803,7.37588863 86.9819878,8.73467064 86.9819878,10.0908193 C86.9788616,11.3903521 87.0351326,12.6925182 86.9632308,13.9907344 C86.8928921,15.249451 86.023818,15.9933579 84.5201322,16 C83.0008156,16.007841 82.1067322,15.2204848 82.066092,13.992051" id="Fill-1"></path>
        </g>
    </g>
</svg>