<svg width="16" height="16" xmlns="http://www.w3.org/2000/svg">
    <path d="M12.609 11.058a6.827 6.827 0 0 0 1.427-4.16C14.036 3.093 10.874 0 7.009 0 3.143 0 0 3.093 0 6.898c0 3.804 3.143 6.898 7.009 6.898 1.445 0 2.8-.445 3.92-1.192l.036.036 3.07 3.022c.217.214.524.338.813.338.29 0 .597-.107.813-.338a1.114 1.114 0 0 0 0-1.6l-3.052-3.004zm-5.6.48c-2.601 0-4.715-2.08-4.715-4.64 0-2.56 2.114-4.64 4.715-4.64 2.6 0 4.714 2.08 4.714 4.64 0 2.56-2.113 4.64-4.714 4.64z" fill="#170A3C" fill-rule="nonzero" fill-opacity=".3"/>
</svg>
